<?xml version="1.0" encoding="UTF-8"?>
<svg id="Capa_1" enable-background="new 0 0 496.474 496.474" version="1.1" viewBox="0 0 496.47 496.47" xml:space="preserve" xmlns="http://www.w3.org/2000/svg" xmlns:cc="http://creativecommons.org/ns#" xmlns:dc="http://purl.org/dc/elements/1.1/" xmlns:rdf="http://www.w3.org/1999/02/22-rdf-syntax-ns#"><metadata id="metadata47"><rdf:RDF><cc:Work rdf:about=""><dc:format>image/svg+xml</dc:format><dc:type rdf:resource="http://purl.org/dc/dcmitype/StillImage"/><dc:title/></cc:Work></rdf:RDF></metadata>
<path id="path2" d="m489.54 269.63c-0.729-14.739-6.206-28.858-15.205-40.572-20.294-26.422-24.25-47.399-24.25-47.399-15.934-41.751-30.099-69.57-40.51-87.226-10.954-18.541-29.898-31.03-51.262-33.776-42.961-5.554-177.23-5.554-220.19 0-21.349 2.762-40.293 15.251-51.247 33.776-10.411 17.656-24.56 45.475-40.51 87.226 0 0-3.956 20.977-24.25 47.399-8.983 11.714-14.476 25.833-15.189 40.572-1.536 31.977 7.727 39.005 16.012 111.37 0.652 5.694 5.461 9.976 11.202 9.976h428.2c5.741 0 10.55-4.298 11.202-9.976 2.327-20.294 9.232-61.456 9.232-61.456 6.049-20.464 7.368-37.143 6.763-49.912z" fill="#E95353"/>
<path id="path4" d="m441.07 179.98c-12.567-31.449-25.383-58.911-38.136-80.803-9.666-16.555-26.717-28.113-45.583-30.642-43.055-5.71-175.48-5.663-218.22 0-18.866 2.529-35.918 14.088-45.584 30.642-12.924 22.171-25.91 50.005-38.291 80.803 128.4 10.1 257.4 10.1 385.82 0z" fill="#72b9eb"/>
<path id="path6" d="m422.84 216.35c-4.903 1.536-9.464 3.693-13.281 5.834-6.951 3.879-14.088 7.494-21.535 10.318-12.35 4.686-14.445 11.683-14.445 11.683-0.372 0.481-0.729 0.962-1.071 1.458-9.371 13.917 2.932 32.442 19.549 30.084 24.033-3.398 43.83-10.364 53.884-14.398 5.756-2.312 10.255-7.121 11.729-13.157 0.14-0.574 0.264-1.148 0.372-1.707 3.694-19.921-15.855-36.15-35.202-30.115z" fill="#fff"/>
<path id="path8" d="m448.52 327.86h-26.733c-4.018 0-6.035 4.856-3.196 7.711l26.733 26.733c2.839 2.839 7.711 0.822 7.711-3.196v-26.733c-1e-3 -2.498-2.018-4.515-4.515-4.515z" fill="#FFE21F"/>
<path id="path10" d="m473.55 380.96c-0.652 5.71-5.477 10.007-11.217 10.007h-51.433v29.851c0 10.566 8.564 19.146 19.146 19.146h32.303c10.566 0 19.146-8.564 19.146-19.146v-93.448c-2.126 12.94-6.253 38.804-7.945 53.59z" fill="#454545"/>
<path id="path12" d="m496.11 159.08c-1.552-6.951-8.083-11.667-15.205-11.667h-12.909c-8.27 0-14.972 6.703-14.972 14.972v9.2h-6.842l3.925 9.325h15.05c7.789 0 15.5-1.676 22.575-4.918 6.376-2.917 9.945-9.899 8.378-16.912z" fill="#ED6262"/>
<circle id="circle14" cx="431.32" cy="240.46" r="18.82" fill="#FFBD49"/>
<circle id="circle16" cx="393.46" cy="255.31" r="13.824" fill="#FFDB6F"/>
<polygon id="polygon18" points="357.63 255.32 336.02 292.96 160.45 292.96 138.84 255.32" fill="#6F6F6F"/>
<path id="path20" d="m123.94 245.64c-0.326-0.496-0.683-0.977-1.071-1.458 0 0-2.095-6.997-14.445-11.683-7.447-2.824-14.569-6.439-21.535-10.318-3.832-2.141-8.378-4.298-13.281-5.834-19.332-6.051-38.896 10.193-35.219 30.115 0.109 0.574 0.233 1.133 0.357 1.707 1.474 6.035 5.973 10.845 11.729 13.157 10.054 4.034 29.851 11 53.9 14.398 16.632 2.358 28.936-16.167 19.565-30.084z" fill="#fff"/>
<path id="path22" d="m74.684 327.86h-26.733c-2.498 0-4.515 2.017-4.515 4.515v26.733c0 4.018 4.872 6.035 7.711 3.196l26.733-26.733c2.839-2.839 0.822-7.711-3.196-7.711z" fill="#FFE21F"/>
<path id="path24" d="m426.23 374.51c-27.834-48.159-59.842-46.654-59.842-46.654h-236.31s-31.992-1.505-59.842 46.654h-48.112l0.59 6.206c0.543 5.834 5.415 10.256 11.248 10.256h428.56c5.834 0 10.705-4.422 11.249-10.255l0.59-6.206-48.13-1e-3z" fill="#777"/>
<path id="path26" d="m34.143 390.99c-5.741 0-10.566-4.313-11.217-10.007-1.691-14.786-5.834-40.665-7.944-53.589v93.448c0 10.566 8.564 19.146 19.146 19.146h32.302c10.566 0 19.146-8.564 19.146-19.146v-29.851h-51.433z" fill="#454545"/>
<path id="path28" d="m43.436 171.59v-9.2c0-8.27-6.703-14.972-14.957-14.972h-12.908c-7.121 0-13.653 4.717-15.205 11.667-1.567 6.997 2.017 13.995 8.378 16.896 7.09 3.243 14.786 4.918 22.575 4.918h15.05l3.925-9.325h-6.858v0.016z" fill="#ED6262"/>
<circle id="circle30" cx="65.142" cy="240.46" r="18.82" fill="#FFBD49"/>
<circle id="circle32" cx="103.03" cy="255.31" r="13.824" fill="#FFDB6F"/>
<g id="g38" fill="#6F6F6F">
	<path id="path34" d="m348.29 341.03h-200.12c-3.134 0-5.663 2.544-5.663 5.663 0 3.134 2.529 5.663 5.663 5.663h200.1c3.134 0 5.663-2.544 5.663-5.663 0.016-3.134-2.529-5.663-5.647-5.663z"/>
	<path id="path36" d="m348.29 363.64h-200.12c-3.134 0-5.663 2.544-5.663 5.663 0 3.134 2.529 5.663 5.663 5.663h200.1c3.134 0 5.663-2.544 5.663-5.663 0.016-3.134-2.529-5.663-5.647-5.663z"/>
</g>
<path id="path40" d="m55.245 179.97c128.4 10.116 257.41 10.116 385.82 0-112.08-112.08-273.17-112.65-385.82 0z" fill="#3aa2eb"/>
</svg>
